<svg xmlns="http://www.w3.org/2000/svg" viewBox="0 0 465.39 513.15"><defs><style>.cls-1{fill:#bd1818;}.cls-2{fill:#e52320;}.cls-3{fill:#dc9f12;}.cls-4{fill:#f4df61;}</style></defs><g id="Layer_2" data-name="Layer 2"><g id="Layer_1-2" data-name="Layer 1"><polygon class="cls-1" points="20.21 115.95 32.02 124.19 32.02 135.2 20.21 139.25 20.21 115.95"/><polygon class="cls-2" points="349.47 473.5 319.37 451.96 319.37 120.21 349.47 106.41 349.47 473.5"/><polygon class="cls-1" points="64.88 101.04 76.69 109.47 76.69 119.87 64.88 123.92 64.88 101.04"/><polygon class="cls-2" points="349.47 84.33 319.37 105.56 319.37 120.21 349.47 120.05 349.47 84.33"/><polygon class="cls-2" points="445.18 115.95 433.38 123.92 433.38 135.2 445.18 139.25 445.18 115.95"/><polygon class="cls-2" points="400.51 101.04 388.7 109.19 388.7 119.87 400.51 123.92 400.51 101.04"/><polygon class="cls-2" points="349.47 148.97 319.44 148.97 232.73 209.23 232.73 233.27 349.47 148.97"/><polygon class="cls-1" points="146.02 148.97 145.87 148.98 145.87 120.21 145.87 106.17 115.91 84.33 115.91 106.41 115.91 120.05 115.91 473.5 145.87 452.03 145.87 171.27 232.73 233.27 232.73 209.23 146.02 148.97"/><polygon class="cls-2" points="232.73 233.27 115.92 149.89 115.92 120.05 115.92 120.05 115.92 84.33 85.82 93.64 85.82 116.74 64.88 123.92 64.88 101.04 41.37 108.9 41.37 131.99 20.21 139.25 20.21 115.95 0 122.66 0 146.19 0 146.19 0 205.18 26.54 224.19 26.54 458.69 115.92 473.5 115.92 310.95 232.73 399.41 232.73 233.27"/><polygon class="cls-1" points="445.18 115.95 445.18 139.25 424.02 131.99 424.02 108.89 400.51 101.04 400.51 123.92 379.57 116.74 379.57 93.64 349.47 84.33 349.47 106.41 349.47 120.05 349.47 148.97 232.73 233.27 232.73 399.41 349.47 309.54 349.47 473.5 438.17 462.82 438.17 224.19 465.39 205.16 465.39 148.97 465.39 146.19 465.39 122.66 445.18 115.95"/><path class="cls-3" d="M232.7,416.27h0v96.89l.8-1.1,31.12-44.37c-4.5-8.09-6.84-40.89-8.06-70.72Z"/><path class="cls-3" d="M241.18,23.83l5.26,60,40.82,0,14.06,14.64-16.44,15.93-10.69-11.06h-8.71c-4.14,4.34-7.3,9.8-7.53,16.46v54.11L232.7,193.84h0V0a12.73,12.73,0,0,1,11.65,12.66Z"/><path class="cls-4" d="M232.68,416.27h0v96.89l-.81-1.1-31.11-44.37c4.49-8.09,6.84-40.89,8-70.72Z"/><path class="cls-4" d="M224,23.83l-5.07,60-40.82,0L164.07,98.48l16.44,15.93,10.69-11.06h8.71c4.14,4.34,7.3,9.8,7.53,16.46v54.11l25.25,19.92h0V0a12.73,12.73,0,0,0-11.64,12.66Z"/></g></g></svg>